<svg width="20" height="28" viewBox="0 0 20 28" fill="none" xmlns="http://www.w3.org/2000/svg">
<path d="M5 22.3333V18.7499C4.20833 18.0277 3.59375 17.1839 3.15625 16.2187C2.71875 15.2534 2.5 14.236 2.5 13.1666C2.5 11.0833 3.22917 9.31242 4.6875 7.85408C6.14583 6.39575 7.91667 5.66658 10 5.66658C11.7361 5.66658 13.2743 6.177 14.6146 7.19783C15.9549 8.21867 16.8264 9.54853 17.2292 11.1874L18.3125 15.4583C18.3819 15.7221 18.3333 15.9617 18.1667 16.177C18 16.3923 17.7778 16.4999 17.5 16.4999H15.8333V18.9999C15.8333 19.4583 15.6701 19.8506 15.3438 20.177C15.0174 20.5034 14.625 20.6666 14.1667 20.6666H12.5V22.3333H10.8333V18.9999H14.1667V14.8333H16.4167L15.625 11.6041C15.3056 10.3402 14.625 9.31242 13.5833 8.52075C12.5417 7.72908 11.3472 7.33325 10 7.33325C8.38889 7.33325 7.01389 7.89575 5.875 9.02075C4.73611 10.1458 4.16667 11.5138 4.16667 13.1249C4.16667 13.9583 4.33681 14.7499 4.67708 15.4999C5.01736 16.2499 5.5 16.9166 6.125 17.4999L6.66667 17.9999V22.3333H5ZM9.16667 16.4999H10.8333L10.9583 15.4583C11.0694 15.4166 11.1701 15.368 11.2604 15.3124C11.3507 15.2569 11.4306 15.1944 11.5 15.1249L12.4583 15.5416L13.2917 14.1249L12.4583 13.4999C12.4861 13.3888 12.5 13.2777 12.5 13.1666C12.5 13.0555 12.4861 12.9444 12.4583 12.8333L13.2917 12.2083L12.4583 10.7916L11.5 11.2083C11.4306 11.1388 11.3507 11.0763 11.2604 11.0208C11.1701 10.9652 11.0694 10.9166 10.9583 10.8749L10.8333 9.83325H9.16667L9.04167 10.8749C8.93056 10.9166 8.82986 10.9652 8.73958 11.0208C8.64931 11.0763 8.56944 11.1388 8.5 11.2083L7.54167 10.7916L6.70833 12.2083L7.54167 12.8333C7.51389 12.9444 7.5 13.0555 7.5 13.1666C7.5 13.2777 7.51389 13.3888 7.54167 13.4999L6.70833 14.1249L7.54167 15.5416L8.5 15.1249C8.56944 15.1944 8.64931 15.2569 8.73958 15.3124C8.82986 15.368 8.93056 15.4166 9.04167 15.4583L9.16667 16.4999ZM10 14.4166C9.65278 14.4166 9.35764 14.2951 9.11458 14.052C8.87153 13.8089 8.75 13.5138 8.75 13.1666C8.75 12.8194 8.87153 12.5242 9.11458 12.2812C9.35764 12.0381 9.65278 11.9166 10 11.9166C10.3472 11.9166 10.6424 12.0381 10.8854 12.2812C11.1285 12.5242 11.25 12.8194 11.25 13.1666C11.25 13.5138 11.1285 13.8089 10.8854 14.052C10.6424 14.2951 10.3472 14.4166 10 14.4166Z" fill="#FD3402"/>
</svg>
