<svg width="20" height="28" viewBox="0 0 20 28" fill="none" xmlns="http://www.w3.org/2000/svg">
<path d="M5 22.3335V18.7502C4.20833 18.0279 3.59375 17.1842 3.15625 16.2189C2.71875 15.2536 2.5 14.2363 2.5 13.1668C2.5 11.0835 3.22917 9.31266 4.6875 7.85433C6.14583 6.39599 7.91667 5.66683 10 5.66683C11.7361 5.66683 13.2743 6.17724 14.6146 7.19808C15.9549 8.21891 16.8264 9.54877 17.2292 11.1877L18.3125 15.4585C18.3819 15.7224 18.3333 15.962 18.1667 16.1772C18 16.3925 17.7778 16.5002 17.5 16.5002H15.8333V19.0002C15.8333 19.4585 15.6701 19.8509 15.3438 20.1772C15.0174 20.5036 14.625 20.6668 14.1667 20.6668H12.5V22.3335H10.8333V19.0002H14.1667V14.8335H16.4167L15.625 11.6043C15.3056 10.3404 14.625 9.31266 13.5833 8.52099C12.5417 7.72933 11.3472 7.33349 10 7.33349C8.38889 7.33349 7.01389 7.89599 5.875 9.02099C4.73611 10.146 4.16667 11.5141 4.16667 13.1252C4.16667 13.9585 4.33681 14.7502 4.67708 15.5002C5.01736 16.2502 5.5 16.9168 6.125 17.5002L6.66667 18.0002V22.3335H5ZM9.16667 16.5002H10.8333L10.9583 15.4585C11.0694 15.4168 11.1701 15.3682 11.2604 15.3127C11.3507 15.2571 11.4306 15.1946 11.5 15.1252L12.4583 15.5418L13.2917 14.1252L12.4583 13.5002C12.4861 13.3891 12.5 13.2779 12.5 13.1668C12.5 13.0557 12.4861 12.9446 12.4583 12.8335L13.2917 12.2085L12.4583 10.7918L11.5 11.2085C11.4306 11.1391 11.3507 11.0766 11.2604 11.021C11.1701 10.9654 11.0694 10.9168 10.9583 10.8752L10.8333 9.83349H9.16667L9.04167 10.8752C8.93056 10.9168 8.82986 10.9654 8.73958 11.021C8.64931 11.0766 8.56944 11.1391 8.5 11.2085L7.54167 10.7918L6.70833 12.2085L7.54167 12.8335C7.51389 12.9446 7.5 13.0557 7.5 13.1668C7.5 13.2779 7.51389 13.3891 7.54167 13.5002L6.70833 14.1252L7.54167 15.5418L8.5 15.1252C8.56944 15.1946 8.64931 15.2571 8.73958 15.3127C8.82986 15.3682 8.93056 15.4168 9.04167 15.4585L9.16667 16.5002ZM10 14.4168C9.65278 14.4168 9.35764 14.2953 9.11458 14.0522C8.87153 13.8092 8.75 13.5141 8.75 13.1668C8.75 12.8196 8.87153 12.5245 9.11458 12.2814C9.35764 12.0384 9.65278 11.9168 10 11.9168C10.3472 11.9168 10.6424 12.0384 10.8854 12.2814C11.1285 12.5245 11.25 12.8196 11.25 13.1668C11.25 13.5141 11.1285 13.8092 10.8854 14.0522C10.6424 14.2953 10.3472 14.4168 10 14.4168Z" fill="#0B6F1E"/>
</svg>
