<svg width="15" height="20" viewBox="0 0 15 20" fill="none" xmlns="http://www.w3.org/2000/svg">
<path d="M11.4267 15C10.2693 15 9.12574 14.7477 7.99611 14.2431C6.86648 13.7384 5.8387 13.0231 4.91277 12.0972C3.98685 11.1713 3.27157 10.1435 2.76694 9.01389C2.26231 7.88426 2.00999 6.74074 2.00999 5.58333C2.00999 5.41667 2.06555 5.27778 2.17666 5.16667C2.28777 5.05556 2.42666 5 2.59333 5H4.84333C4.97296 5 5.0887 5.04398 5.19055 5.13194C5.2924 5.21991 5.35259 5.32407 5.37111 5.44444L5.73222 7.38889C5.75074 7.53704 5.74611 7.66204 5.71833 7.76389C5.69055 7.86574 5.63962 7.9537 5.56555 8.02778L4.21833 9.38889C4.40351 9.73148 4.62342 10.0625 4.87805 10.3819C5.13268 10.7014 5.41277 11.0093 5.71833 11.3056C6.00536 11.5926 6.30629 11.8588 6.62111 12.1042C6.93592 12.3495 7.26925 12.5741 7.62111 12.7778L8.92666 11.4722C9.00999 11.3889 9.11879 11.3264 9.25305 11.2847C9.38731 11.2431 9.51925 11.2315 9.64888 11.25L11.5655 11.6389C11.6952 11.6759 11.8017 11.7431 11.885 11.8403C11.9683 11.9375 12.01 12.0463 12.01 12.1667V14.4167C12.01 14.5833 11.9544 14.7222 11.8433 14.8333C11.7322 14.9444 11.5933 15 11.4267 15ZM3.69055 8.33333L4.60722 7.41667L4.37111 6.11111H3.13499C3.18129 6.49074 3.24611 6.86574 3.32944 7.23611C3.41277 7.60648 3.53314 7.97222 3.69055 8.33333ZM8.66277 13.3056C9.02388 13.463 9.39194 13.588 9.76694 13.6806C10.1419 13.7731 10.5193 13.8333 10.8989 13.8611V12.6389L9.59333 12.375L8.66277 13.3056Z" fill="#0B6F1E"/>
</svg>
