<svg width="16" height="20" viewBox="0 0 16 20" fill="none" xmlns="http://www.w3.org/2000/svg">
<path d="M7.06665 13.067L11.7666 8.36699L10.8333 7.43366L7.06665 11.2003L5.16665 9.30032L4.23331 10.2337L7.06665 13.067ZM7.99998 16.667C7.07776 16.667 6.21109 16.492 5.39998 16.142C4.58887 15.792 3.88331 15.317 3.28331 14.717C2.68331 14.117 2.20831 13.4114 1.85831 12.6003C1.50831 11.7892 1.33331 10.9225 1.33331 10.0003C1.33331 9.0781 1.50831 8.21144 1.85831 7.40032C2.20831 6.58921 2.68331 5.88366 3.28331 5.28366C3.88331 4.68366 4.58887 4.20866 5.39998 3.85866C6.21109 3.50866 7.07776 3.33366 7.99998 3.33366C8.9222 3.33366 9.78887 3.50866 10.6 3.85866C11.4111 4.20866 12.1166 4.68366 12.7166 5.28366C13.3166 5.88366 13.7916 6.58921 14.1416 7.40032C14.4916 8.21144 14.6666 9.0781 14.6666 10.0003C14.6666 10.9225 14.4916 11.7892 14.1416 12.6003C13.7916 13.4114 13.3166 14.117 12.7166 14.717C12.1166 15.317 11.4111 15.792 10.6 16.142C9.78887 16.492 8.9222 16.667 7.99998 16.667ZM7.99998 15.3337C9.48887 15.3337 10.75 14.817 11.7833 13.7837C12.8166 12.7503 13.3333 11.4892 13.3333 10.0003C13.3333 8.51144 12.8166 7.25033 11.7833 6.21699C10.75 5.18366 9.48887 4.66699 7.99998 4.66699C6.51109 4.66699 5.24998 5.18366 4.21665 6.21699C3.18331 7.25033 2.66665 8.51144 2.66665 10.0003C2.66665 11.4892 3.18331 12.7503 4.21665 13.7837C5.24998 14.817 6.51109 15.3337 7.99998 15.3337Z" fill="#2BEE79"/>
</svg>
