<svg width="29" height="34" viewBox="0 0 29 34" fill="none" xmlns="http://www.w3.org/2000/svg">
<path d="M14.0099 9.99505C13.3678 9.99505 12.8181 9.76641 12.3608 9.30914C11.9036 8.85187 11.6749 8.30217 11.6749 7.66005C11.6749 7.01792 11.9036 6.46823 12.3608 6.01095C12.8181 5.55368 13.3678 5.32505 14.0099 5.32505C14.6521 5.32505 15.2018 5.55368 15.659 6.01095C16.1163 6.46823 16.3449 7.01792 16.3449 7.66005C16.3449 8.30217 16.1163 8.85187 15.659 9.30914C15.2018 9.76641 14.6521 9.99505 14.0099 9.99505ZM10.5074 28.675V13.4975C9.33994 13.4003 8.15298 13.2543 6.94657 13.0597C5.74015 12.8652 4.59211 12.6219 3.50244 12.33L4.08619 9.99505C5.60394 10.4037 7.21898 10.7004 8.93132 10.8853C10.6436 11.0701 12.3365 11.1625 14.0099 11.1625C15.6834 11.1625 17.3762 11.0701 19.0886 10.8853C20.8009 10.7004 22.4159 10.4037 23.9337 9.99505L24.5174 12.33C23.4278 12.6219 22.2797 12.8652 21.0733 13.0597C19.8669 13.2543 18.6799 13.4003 17.5124 13.4975V28.675H15.1774V21.67H12.8424V28.675H10.5074Z" fill="#FD3402"/>
</svg>
