<svg width="32" height="38" viewBox="0 0 32 38" fill="none" xmlns="http://www.w3.org/2000/svg">
<path d="M8.08333 32.1943V26.5207C6.82986 25.3772 5.85677 24.0413 5.16406 22.5129C4.47135 20.9846 4.125 19.3737 4.125 17.6804C4.125 14.3818 5.27951 11.578 7.58854 9.26899C9.89757 6.95996 12.7014 5.80545 16 5.80545C18.7488 5.80545 21.1843 6.61361 23.3064 8.22993C25.4285 9.84624 26.8084 11.9519 27.4462 14.5468L29.1615 21.3089C29.2714 21.7267 29.1944 22.1061 28.9306 22.4469C28.6667 22.7878 28.3148 22.9582 27.875 22.9582H25.2361V26.9166C25.2361 27.6423 24.9777 28.2635 24.4609 28.7803C23.9442 29.2971 23.3229 29.5554 22.5972 29.5554H19.9583V32.1943H17.3194V26.9166H22.5972V20.3193H26.1597L24.9062 15.2065C24.4005 13.2053 23.3229 11.578 21.6736 10.3245C20.0243 9.07107 18.1331 8.44434 16 8.44434C13.4491 8.44434 11.272 9.33496 9.46875 11.1162C7.66551 12.8975 6.76389 15.0635 6.76389 17.6145C6.76389 18.9339 7.03328 20.1874 7.57205 21.3749C8.11082 22.5624 8.875 23.6179 9.86458 24.5416L10.7222 25.3332V32.1943H8.08333ZM14.6806 22.9582H17.3194L17.5174 21.3089C17.6933 21.2429 17.8527 21.166 17.9957 21.078C18.1386 20.9901 18.265 20.8911 18.375 20.7811L19.8924 21.4409L21.2118 19.1978L19.8924 18.2082C19.9363 18.0323 19.9583 17.8564 19.9583 17.6804C19.9583 17.5045 19.9363 17.3286 19.8924 17.1527L21.2118 16.1631L19.8924 13.92L18.375 14.5798C18.265 14.4698 18.1386 14.3708 17.9957 14.2829C17.8527 14.1949 17.6933 14.1179 17.5174 14.052L17.3194 12.4027H14.6806L14.4826 14.052C14.3067 14.1179 14.1473 14.1949 14.0043 14.2829C13.8614 14.3708 13.735 14.4698 13.625 14.5798L12.1076 13.92L10.7882 16.1631L12.1076 17.1527C12.0637 17.3286 12.0417 17.5045 12.0417 17.6804C12.0417 17.8564 12.0637 18.0323 12.1076 18.2082L10.7882 19.1978L12.1076 21.4409L13.625 20.7811C13.735 20.8911 13.8614 20.9901 14.0043 21.078C14.1473 21.166 14.3067 21.2429 14.4826 21.3089L14.6806 22.9582ZM16 19.6596C15.4502 19.6596 14.9829 19.4672 14.5981 19.0824C14.2133 18.6975 14.0208 18.2302 14.0208 17.6804C14.0208 17.1307 14.2133 16.6634 14.5981 16.2785C14.9829 15.8937 15.4502 15.7013 16 15.7013C16.5498 15.7013 17.0171 15.8937 17.4019 16.2785C17.7867 16.6634 17.9792 17.1307 17.9792 17.6804C17.9792 18.2302 17.7867 18.6975 17.4019 19.0824C17.0171 19.4672 16.5498 19.6596 16 19.6596Z" fill="#2BEE79"/>
</svg>
