<svg width="15" height="20" viewBox="0 0 15 20" fill="none" xmlns="http://www.w3.org/2000/svg">
<path d="M2.56555 14.4443C2.25999 14.4443 1.99842 14.3355 1.78083 14.1179C1.56323 13.9004 1.45444 13.6388 1.45444 13.3332V6.66656C1.45444 6.361 1.56323 6.09943 1.78083 5.88183C1.99842 5.66424 2.25999 5.55545 2.56555 5.55545H11.4544C11.76 5.55545 12.0216 5.66424 12.2392 5.88183C12.4568 6.09943 12.5655 6.361 12.5655 6.66656V13.3332C12.5655 13.6388 12.4568 13.9004 12.2392 14.1179C12.0216 14.3355 11.76 14.4443 11.4544 14.4443H2.56555ZM7.00999 10.5554L2.56555 7.77767V13.3332H11.4544V7.77767L7.00999 10.5554ZM7.00999 9.44434L11.4544 6.66656H2.56555L7.00999 9.44434Z" fill="#0B6F1E"/>
</svg>
