<svg width="29" height="34" viewBox="0 0 29 34" fill="none" xmlns="http://www.w3.org/2000/svg">
<path d="M14.01 28.675C13.3679 28.675 12.8182 28.4464 12.3609 27.9891C11.9037 27.5319 11.675 26.9822 11.675 26.34H16.345C16.345 26.9822 16.1164 27.5319 15.6591 27.9891C15.2019 28.4464 14.6522 28.675 14.01 28.675ZM9.34003 25.1725V22.8375H18.68V25.1725H9.34003ZM9.63191 21.67C8.28928 20.8723 7.22394 19.802 6.43588 18.4594C5.64782 17.1168 5.25378 15.6574 5.25378 14.0813C5.25378 11.649 6.10509 9.58156 7.80769 7.87895C9.51029 6.17635 11.5777 5.32505 14.01 5.32505C16.4423 5.32505 18.5098 6.17635 20.2124 7.87895C21.915 9.58156 22.7663 11.649 22.7663 14.0813C22.7663 15.6574 22.3723 17.1168 21.5842 18.4594C20.7961 19.802 19.7308 20.8723 18.3882 21.67H9.63191ZM10.3324 19.335H17.6877C18.5633 18.7124 19.2395 17.9438 19.7162 17.0292C20.1929 16.1147 20.4313 15.132 20.4313 14.0813C20.4313 12.2911 19.8086 10.7734 18.5633 9.52805C17.318 8.28271 15.8002 7.66005 14.01 7.66005C12.2199 7.66005 10.7021 8.28271 9.45678 9.52805C8.21145 10.7734 7.58878 12.2911 7.58878 14.0813C7.58878 15.132 7.82715 16.1147 8.30388 17.0292C8.78061 17.9438 9.45678 18.7124 10.3324 19.335Z" fill="#0B6F1E"/>
</svg>
