<svg width="20" height="28" viewBox="0 0 20 28" fill="none" xmlns="http://www.w3.org/2000/svg">
<path d="M4.70825 12.354L6.33325 13.0415C6.5277 12.6526 6.72909 12.2776 6.93742 11.9165C7.14575 11.5554 7.37492 11.1943 7.62492 10.8332L6.45825 10.604L4.70825 12.354ZM7.66659 14.0832L10.0416 16.4373C10.6249 16.2151 11.2499 15.8748 11.9166 15.4165C12.5833 14.9582 13.2083 14.4373 13.7916 13.854C14.7638 12.8818 15.5242 11.8019 16.0728 10.6144C16.6214 9.42692 16.861 8.33317 16.7916 7.33317C15.7916 7.26372 14.6944 7.50331 13.4999 8.05192C12.3055 8.60053 11.2221 9.36095 10.2499 10.3332C9.66659 10.9165 9.14575 11.5415 8.68742 12.2082C8.22909 12.8748 7.88881 13.4998 7.66659 14.0832ZM11.3749 12.729C11.0555 12.4096 10.8958 12.0172 10.8958 11.5519C10.8958 11.0866 11.0555 10.6943 11.3749 10.3748C11.6944 10.0554 12.0902 9.89567 12.5624 9.89567C13.0346 9.89567 13.4305 10.0554 13.7499 10.3748C14.0694 10.6943 14.2291 11.0866 14.2291 11.5519C14.2291 12.0172 14.0694 12.4096 13.7499 12.729C13.4305 13.0484 13.0346 13.2082 12.5624 13.2082C12.0902 13.2082 11.6944 13.0484 11.3749 12.729ZM11.7708 19.4165L13.5208 17.6665L13.2916 16.4998C12.9305 16.7498 12.5694 16.9755 12.2083 17.1769C11.8471 17.3783 11.4721 17.5762 11.0833 17.7707L11.7708 19.4165ZM18.2916 5.81234C18.5555 7.49289 18.3923 9.12831 17.802 10.7186C17.2117 12.3089 16.1944 13.8262 14.7499 15.2707L15.1666 17.3332C15.2221 17.6109 15.2083 17.8818 15.1249 18.1457C15.0416 18.4096 14.9027 18.6387 14.7083 18.8332L11.2083 22.3332L9.45825 18.229L5.89575 14.6665L1.79159 12.9165L5.27075 9.4165C5.4652 9.22206 5.69784 9.08317 5.96867 8.99984C6.2395 8.9165 6.51381 8.90261 6.79159 8.95817L8.85409 9.37484C10.2985 7.93039 11.8124 6.90956 13.3958 6.31234C14.9791 5.71511 16.611 5.54845 18.2916 5.81234ZM3.27075 17.3123C3.75686 16.8262 4.35061 16.5797 5.052 16.5728C5.75339 16.5658 6.34714 16.8054 6.83325 17.2915C7.31936 17.7776 7.55895 18.3714 7.552 19.0728C7.54506 19.7741 7.29853 20.3679 6.81242 20.854C6.4652 21.2012 5.88534 21.4998 5.07284 21.7498C4.26034 21.9998 3.13881 22.2221 1.70825 22.4165C1.9027 20.9859 2.12492 19.8644 2.37492 19.0519C2.62492 18.2394 2.92353 17.6596 3.27075 17.3123ZM4.45825 18.479C4.31936 18.6179 4.18047 18.8714 4.04159 19.2394C3.9027 19.6075 3.80547 19.979 3.74992 20.354C4.12492 20.2984 4.49645 20.2047 4.8645 20.0728C5.23256 19.9408 5.48603 19.8054 5.62492 19.6665C5.79159 19.4998 5.88186 19.2984 5.89575 19.0623C5.90964 18.8262 5.83325 18.6248 5.66659 18.4582C5.49992 18.2915 5.29853 18.2116 5.06242 18.2186C4.82631 18.2255 4.62492 18.3123 4.45825 18.479Z" fill="#0B6F1E"/>
</svg>
