<svg width="25" height="28" viewBox="0 0 25 28" fill="none" xmlns="http://www.w3.org/2000/svg">
<path d="M5.8364 12.0799L7.73223 12.882C7.95908 12.4283 8.19403 11.9908 8.43709 11.5695C8.68015 11.1482 8.94751 10.7269 9.23917 10.3056L7.87806 10.0382L5.8364 12.0799ZM9.28778 14.0972L12.0586 16.8438C12.7392 16.5845 13.4683 16.1875 14.2461 15.6528C15.0239 15.1181 15.7531 14.5104 16.4336 13.8299C17.5679 12.6956 18.455 11.4358 19.0951 10.0504C19.7351 8.66494 20.0146 7.3889 19.9336 6.22224C18.767 6.14122 17.4869 6.42073 16.0933 7.06078C14.6998 7.70082 13.4359 8.58798 12.3017 9.72224C11.6211 10.4028 11.0135 11.132 10.4788 11.9097C9.94403 12.6875 9.54704 13.4167 9.28778 14.0972ZM13.6142 12.5174C13.2415 12.1447 13.0551 11.6869 13.0551 11.1441C13.0551 10.6013 13.2415 10.1435 13.6142 9.77085C13.9869 9.39816 14.4487 9.21182 14.9996 9.21182C15.5505 9.21182 16.0123 9.39816 16.385 9.77085C16.7577 10.1435 16.944 10.6013 16.944 11.1441C16.944 11.6869 16.7577 12.1447 16.385 12.5174C16.0123 12.8901 15.5505 13.0764 14.9996 13.0764C14.4487 13.0764 13.9869 12.8901 13.6142 12.5174ZM14.076 20.3195L16.1176 18.2778L15.8503 16.9167C15.429 17.2083 15.0077 17.4717 14.5864 17.7066C14.1651 17.9416 13.7276 18.1725 13.2739 18.3993L14.076 20.3195ZM21.6836 4.44793C21.9915 6.40858 21.8011 8.31657 21.1124 10.1719C20.4238 12.0272 19.2369 13.7975 17.5517 15.4827L18.0378 17.8889C18.1026 18.213 18.0864 18.5289 17.9892 18.8368C17.892 19.1447 17.7299 19.4121 17.5031 19.6389L13.4197 23.7222L11.3781 18.934L7.22181 14.7778L2.43362 12.7361L6.49265 8.65279C6.7195 8.42594 6.99091 8.2639 7.30688 8.16668C7.62285 8.06946 7.94288 8.05326 8.26695 8.11807L10.6732 8.60418C12.3584 6.919 14.1246 5.72802 15.9718 5.03127C17.819 4.33451 19.723 4.14006 21.6836 4.44793ZM4.15931 17.8646C4.72644 17.2975 5.41915 17.0099 6.23744 17.0017C7.05572 16.9936 7.74843 17.2732 8.31556 17.8403C8.88269 18.4074 9.16221 19.1001 9.1541 19.9184C9.146 20.7367 8.85839 21.4294 8.29126 21.9965C7.88616 22.4016 7.20966 22.75 6.26174 23.0417C5.31383 23.3333 4.00538 23.5926 2.3364 23.8195C2.56325 22.1505 2.82251 20.842 3.11417 19.8941C3.40584 18.9462 3.75422 18.2697 4.15931 17.8646ZM5.54473 19.2257C5.38269 19.3877 5.22065 19.6835 5.05862 20.1129C4.89658 20.5423 4.78315 20.9757 4.71834 21.4132C5.15584 21.3484 5.58929 21.239 6.01869 21.0851C6.44809 20.9311 6.7438 20.7732 6.90584 20.6111C7.10028 20.4167 7.20561 20.1817 7.22181 19.9063C7.23802 19.6308 7.1489 19.3958 6.95445 19.2014C6.76001 19.007 6.52505 18.9138 6.24959 18.9219C5.97413 18.93 5.73917 19.0313 5.54473 19.2257Z" fill="white"/>
</svg>
