<svg width="20" height="28" viewBox="0 0 20 28" fill="none" xmlns="http://www.w3.org/2000/svg">
<path d="M4.70833 12.3542L6.33333 13.0417C6.52777 12.6529 6.72916 12.2779 6.9375 11.9167C7.14583 11.5556 7.375 11.1945 7.625 10.8334L6.45833 10.6042L4.70833 12.3542ZM7.66666 14.0834L10.0417 16.4376C10.625 16.2154 11.25 15.8751 11.9167 15.4167C12.5833 14.9584 13.2083 14.4376 13.7917 13.8542C14.7639 12.882 15.5243 11.8022 16.0729 10.6147C16.6215 9.42716 16.8611 8.33341 16.7917 7.33341C15.7917 7.26397 14.6944 7.50355 13.5 8.05216C12.3056 8.60077 11.2222 9.36119 10.25 10.3334C9.66666 10.9167 9.14583 11.5417 8.6875 12.2084C8.22916 12.8751 7.88888 13.5001 7.66666 14.0834ZM11.375 12.7292C11.0556 12.4098 10.8958 12.0174 10.8958 11.5522C10.8958 11.0869 11.0556 10.6945 11.375 10.3751C11.6944 10.0556 12.0903 9.89591 12.5625 9.89591C13.0347 9.89591 13.4306 10.0556 13.75 10.3751C14.0694 10.6945 14.2292 11.0869 14.2292 11.5522C14.2292 12.0174 14.0694 12.4098 13.75 12.7292C13.4306 13.0487 13.0347 13.2084 12.5625 13.2084C12.0903 13.2084 11.6944 13.0487 11.375 12.7292ZM11.7708 19.4167L13.5208 17.6667L13.2917 16.5001C12.9306 16.7501 12.5694 16.9758 12.2083 17.1772C11.8472 17.3786 11.4722 17.5765 11.0833 17.7709L11.7708 19.4167ZM18.2917 5.81258C18.5556 7.49314 18.3924 9.12855 17.8021 10.7188C17.2118 12.3091 16.1944 13.8265 14.75 15.2709L15.1667 17.3334C15.2222 17.6112 15.2083 17.882 15.125 18.1459C15.0417 18.4098 14.9028 18.639 14.7083 18.8334L11.2083 22.3334L9.45833 18.2292L5.89583 14.6667L1.79166 12.9167L5.27083 9.41675C5.46527 9.2223 5.69791 9.08341 5.96875 9.00008C6.23958 8.91675 6.51388 8.90286 6.79166 8.95841L8.85416 9.37508C10.2986 7.93064 11.8125 6.9098 13.3958 6.31258C14.9792 5.71536 16.6111 5.54869 18.2917 5.81258ZM3.27083 17.3126C3.75694 16.8265 4.35069 16.5799 5.05208 16.573C5.75347 16.5661 6.34722 16.8056 6.83333 17.2917C7.31944 17.7779 7.55902 18.3716 7.55208 19.073C7.54513 19.7744 7.29861 20.3681 6.8125 20.8542C6.46527 21.2015 5.88541 21.5001 5.07291 21.7501C4.26041 22.0001 3.13888 22.2223 1.70833 22.4167C1.90277 20.9862 2.12499 19.8647 2.37499 19.0522C2.62499 18.2397 2.92361 17.6598 3.27083 17.3126ZM4.45833 18.4792C4.31944 18.6181 4.18055 18.8716 4.04166 19.2397C3.90277 19.6077 3.80555 19.9792 3.74999 20.3542C4.12499 20.2987 4.49652 20.2049 4.86458 20.073C5.23263 19.9411 5.48611 19.8056 5.62499 19.6667C5.79166 19.5001 5.88194 19.2987 5.89583 19.0626C5.90972 18.8265 5.83333 18.6251 5.66666 18.4584C5.49999 18.2917 5.29861 18.2119 5.06249 18.2188C4.82638 18.2258 4.62499 18.3126 4.45833 18.4792Z" fill="#FD3402"/>
</svg>
