<svg width="32" height="38" viewBox="0 0 32 38" fill="none" xmlns="http://www.w3.org/2000/svg">
<path d="M15.8351 29.5556C15.923 29.5556 16.011 29.5336 16.099 29.4896C16.1869 29.4456 16.2529 29.4016 16.2969 29.3577L27.1163 18.5382C27.3802 18.2743 27.5726 17.9774 27.6936 17.6476C27.8145 17.3177 27.875 16.9879 27.875 16.658C27.875 16.3061 27.8145 15.9708 27.6936 15.6519C27.5726 15.3331 27.3802 15.0527 27.1163 14.8108L21.5087 9.20314C21.2668 8.93925 20.9864 8.74683 20.6675 8.62588C20.3487 8.50493 20.0133 8.44446 19.6615 8.44446C19.3316 8.44446 19.0017 8.50493 18.6719 8.62588C18.342 8.74683 18.0451 8.93925 17.7812 9.20314L17.4184 9.56598L19.8594 12.0399C20.1892 12.3478 20.4311 12.6997 20.5851 13.0955C20.739 13.4913 20.816 13.9092 20.816 14.349C20.816 15.2726 20.5026 16.0478 19.8759 16.6745C19.2491 17.3012 18.474 17.6146 17.5503 17.6146C17.1105 17.6146 16.6872 17.5376 16.2804 17.3837C15.8736 17.2298 15.5162 16.9989 15.2083 16.691L12.7344 14.25L6.9618 20.0226C6.89583 20.0886 6.84635 20.16 6.81337 20.237C6.78038 20.314 6.76389 20.3964 6.76389 20.4844C6.76389 20.6603 6.82986 20.8197 6.9618 20.9627C7.09375 21.1056 7.24768 21.1771 7.42361 21.1771C7.51157 21.1771 7.59954 21.1551 7.6875 21.1111C7.77546 21.0671 7.84143 21.0232 7.88542 20.9792L12.3715 16.4931L14.2187 18.3403L9.76562 22.8264C9.69965 22.8924 9.65017 22.9638 9.61719 23.0408C9.5842 23.1178 9.56771 23.2002 9.56771 23.2882C9.56771 23.4641 9.63368 23.6181 9.76562 23.75C9.89757 23.882 10.0515 23.9479 10.2274 23.9479C10.3154 23.9479 10.4034 23.9259 10.4913 23.882C10.5793 23.838 10.6453 23.794 10.6892 23.75L15.1753 19.2969L17.0226 21.1441L12.5694 25.6302C12.5035 25.6742 12.454 25.7402 12.421 25.8281C12.388 25.9161 12.3715 26.0041 12.3715 26.092C12.3715 26.268 12.4375 26.4219 12.5694 26.5538C12.7014 26.6858 12.8553 26.7517 13.0312 26.7517C13.1192 26.7517 13.2017 26.7353 13.2786 26.7023C13.3556 26.6693 13.4271 26.6198 13.4931 26.5538L17.9792 22.1007L19.8264 23.9479L15.3403 28.434C15.2743 28.5 15.2248 28.5715 15.1918 28.6485C15.1589 28.7254 15.1424 28.8079 15.1424 28.8958C15.1424 29.0718 15.2138 29.2257 15.3568 29.3577C15.4997 29.4896 15.6591 29.5556 15.8351 29.5556ZM15.8021 32.1945C14.9884 32.1945 14.2682 31.9251 13.6415 31.3863C13.0148 30.8475 12.6464 30.1713 12.5365 29.3577C11.7888 29.2477 11.162 28.9398 10.6562 28.434C10.1505 27.9283 9.84259 27.3015 9.73264 26.5538C8.98495 26.4439 8.36371 26.1305 7.86892 25.6137C7.37413 25.0969 7.07176 24.4757 6.9618 23.75C6.12616 23.6401 5.44444 23.2772 4.91667 22.6615C4.38889 22.0457 4.125 21.32 4.125 20.4844C4.125 20.0446 4.20746 19.6213 4.3724 19.2144C4.53733 18.8076 4.77373 18.4502 5.0816 18.1424L12.7344 10.5226L17.0556 14.8438C17.0995 14.9097 17.1655 14.9592 17.2535 14.9922C17.3414 15.0252 17.4294 15.0417 17.5174 15.0417C17.7153 15.0417 17.8802 14.9812 18.0122 14.8603C18.1441 14.7393 18.2101 14.5799 18.2101 14.382C18.2101 14.294 18.1936 14.206 18.1606 14.1181C18.1276 14.0301 18.0781 13.9641 18.0122 13.9202L13.2951 9.20314C13.0532 8.93925 12.7729 8.74683 12.454 8.62588C12.1351 8.50493 11.7998 8.44446 11.4479 8.44446C11.1181 8.44446 10.7882 8.50493 10.4583 8.62588C10.1285 8.74683 9.8316 8.93925 9.56771 9.20314L4.91667 13.8872C4.71875 14.0851 4.55382 14.316 4.42187 14.5799C4.28993 14.8438 4.20197 15.1077 4.15799 15.3715C4.114 15.6354 4.114 15.9048 4.15799 16.1797C4.20197 16.4546 4.28993 16.713 4.42187 16.9549L2.50868 18.8681C2.13484 18.3623 1.85995 17.807 1.68403 17.2023C1.5081 16.5975 1.44213 15.9873 1.48611 15.3715C1.53009 14.7558 1.68403 14.1566 1.94792 13.5738C2.2118 12.991 2.57465 12.4688 3.03646 12.007L7.6875 7.35592C8.21528 6.85013 8.80353 6.46529 9.45226 6.2014C10.101 5.93751 10.7662 5.80557 11.4479 5.80557C12.1296 5.80557 12.7948 5.93751 13.4436 6.2014C14.0923 6.46529 14.6696 6.85013 15.1753 7.35592L15.5382 7.71876L15.901 7.35592C16.4288 6.85013 17.0171 6.46529 17.6658 6.2014C18.3145 5.93751 18.9797 5.80557 19.6615 5.80557C20.3432 5.80557 21.0084 5.93751 21.6571 6.2014C22.3058 6.46529 22.8831 6.85013 23.3889 7.35592L28.9635 12.9306C29.4693 13.4364 29.8542 14.0191 30.1181 14.6788C30.3819 15.3386 30.5139 16.0093 30.5139 16.691C30.5139 17.3727 30.3819 18.0379 30.1181 18.6866C29.8542 19.3354 29.4693 19.9126 28.9635 20.4184L18.1441 31.2049C17.8362 31.5127 17.4789 31.7546 17.072 31.9306C16.6652 32.1065 16.2419 32.1945 15.8021 32.1945Z" fill="#2BEE79"/>
</svg>
