<svg width="32" height="38" viewBox="0 0 32 38" fill="none" xmlns="http://www.w3.org/2000/svg">
<path d="M15.8351 29.5554C15.923 29.5554 16.011 29.5335 16.099 29.4895C16.1869 29.4455 16.2529 29.4015 16.2969 29.3575L27.1163 18.5381C27.3802 18.2742 27.5726 17.9773 27.6936 17.6475C27.8145 17.3176 27.875 16.9877 27.875 16.6579C27.875 16.306 27.8145 15.9707 27.6936 15.6518C27.5726 15.3329 27.3802 15.0526 27.1163 14.8107L21.5087 9.20302C21.2668 8.93913 20.9864 8.74671 20.6675 8.62576C20.3487 8.50481 20.0133 8.44434 19.6615 8.44434C19.3316 8.44434 19.0017 8.50481 18.6719 8.62576C18.342 8.74671 18.0451 8.93913 17.7812 9.20302L17.4184 9.56586L19.8594 12.0398C20.1892 12.3477 20.4311 12.6995 20.5851 13.0954C20.739 13.4912 20.816 13.909 20.816 14.3489C20.816 15.2725 20.5026 16.0476 19.8759 16.6744C19.2491 17.3011 18.474 17.6145 17.5503 17.6145C17.1105 17.6145 16.6872 17.5375 16.2804 17.3836C15.8736 17.2296 15.5162 16.9987 15.2083 16.6909L12.7344 14.2499L6.9618 20.0225C6.89583 20.0884 6.84635 20.1599 6.81337 20.2369C6.78038 20.3138 6.76389 20.3963 6.76389 20.4843C6.76389 20.6602 6.82986 20.8196 6.9618 20.9626C7.09375 21.1055 7.24768 21.177 7.42361 21.177C7.51157 21.177 7.59954 21.155 7.6875 21.111C7.77546 21.067 7.84143 21.023 7.88542 20.9791L12.3715 16.4929L14.2187 18.3402L9.76562 22.8263C9.69965 22.8923 9.65017 22.9637 9.61719 23.0407C9.5842 23.1177 9.56771 23.2001 9.56771 23.2881C9.56771 23.464 9.63368 23.6179 9.76562 23.7499C9.89757 23.8818 10.0515 23.9478 10.2274 23.9478C10.3154 23.9478 10.4034 23.9258 10.4913 23.8818C10.5793 23.8379 10.6453 23.7939 10.6892 23.7499L15.1753 19.2968L17.0226 21.144L12.5694 25.6301C12.5035 25.6741 12.454 25.7401 12.421 25.828C12.388 25.916 12.3715 26.0039 12.3715 26.0919C12.3715 26.2678 12.4375 26.4218 12.5694 26.5537C12.7014 26.6857 12.8553 26.7516 13.0312 26.7516C13.1192 26.7516 13.2017 26.7351 13.2786 26.7021C13.3556 26.6692 13.4271 26.6197 13.4931 26.5537L17.9792 22.1006L19.8264 23.9478L15.3403 28.4339C15.2743 28.4999 15.2248 28.5714 15.1918 28.6483C15.1589 28.7253 15.1424 28.8078 15.1424 28.8957C15.1424 29.0717 15.2138 29.2256 15.3568 29.3575C15.4997 29.4895 15.6591 29.5554 15.8351 29.5554ZM15.8021 32.1943C14.9884 32.1943 14.2682 31.9249 13.6415 31.3862C13.0148 30.8474 12.6464 30.1712 12.5365 29.3575C11.7888 29.2476 11.162 28.9397 10.6562 28.4339C10.1505 27.9281 9.84259 27.3014 9.73264 26.5537C8.98495 26.4438 8.36371 26.1304 7.86892 25.6136C7.37413 25.0968 7.07176 24.4756 6.9618 23.7499C6.12616 23.6399 5.44444 23.2771 4.91667 22.6613C4.38889 22.0456 4.125 21.3199 4.125 20.4843C4.125 20.0445 4.20746 19.6211 4.3724 19.2143C4.53733 18.8075 4.77373 18.4501 5.0816 18.1423L12.7344 10.5225L17.0556 14.8436C17.0995 14.9096 17.1655 14.9591 17.2535 14.9921C17.3414 15.0251 17.4294 15.0416 17.5174 15.0416C17.7153 15.0416 17.8802 14.9811 18.0122 14.8601C18.1441 14.7392 18.2101 14.5798 18.2101 14.3818C18.2101 14.2939 18.1936 14.2059 18.1606 14.1179C18.1276 14.03 18.0781 13.964 18.0122 13.92L13.2951 9.20302C13.0532 8.93913 12.7729 8.74671 12.454 8.62576C12.1351 8.50481 11.7998 8.44434 11.4479 8.44434C11.1181 8.44434 10.7882 8.50481 10.4583 8.62576C10.1285 8.74671 9.8316 8.93913 9.56771 9.20302L4.91667 13.887C4.71875 14.085 4.55382 14.3159 4.42187 14.5798C4.28993 14.8436 4.20197 15.1075 4.15799 15.3714C4.114 15.6353 4.114 15.9047 4.15799 16.1796C4.20197 16.4545 4.28993 16.7129 4.42187 16.9548L2.50868 18.8679C2.13484 18.3622 1.85995 17.8069 1.68403 17.2021C1.5081 16.5974 1.44213 15.9872 1.48611 15.3714C1.53009 14.7557 1.68403 14.1564 1.94792 13.5737C2.2118 12.9909 2.57465 12.4686 3.03646 12.0068L7.6875 7.35579C8.21528 6.85001 8.80353 6.46517 9.45226 6.20128C10.101 5.93739 10.7662 5.80545 11.4479 5.80545C12.1296 5.80545 12.7948 5.93739 13.4436 6.20128C14.0923 6.46517 14.6696 6.85001 15.1753 7.35579L15.5382 7.71864L15.901 7.35579C16.4288 6.85001 17.0171 6.46517 17.6658 6.20128C18.3145 5.93739 18.9797 5.80545 19.6615 5.80545C20.3432 5.80545 21.0084 5.93739 21.6571 6.20128C22.3058 6.46517 22.8831 6.85001 23.3889 7.35579L28.9635 12.9304C29.4693 13.4362 29.8542 14.019 30.1181 14.6787C30.3819 15.3384 30.5139 16.0091 30.5139 16.6909C30.5139 17.3726 30.3819 18.0378 30.1181 18.6865C29.8542 19.3352 29.4693 19.9125 28.9635 20.4183L18.1441 31.2048C17.8362 31.5126 17.4789 31.7545 17.072 31.9304C16.6652 32.1064 16.2419 32.1943 15.8021 32.1943Z" fill="#0B6F1E"/>
</svg>
