<svg width="81" height="244" viewBox="0 0 81 244" fill="none" xmlns="http://www.w3.org/2000/svg">
<path d="M0 3.6029L5.37592 5.70832L4.51131 -7.39098e-05L0 3.6029ZM34 31.6029L33.5005 31.6253L34 31.6029ZM34 199.603L33.5 199.597L33.4999 199.608L33.5002 199.618L34 199.603ZM81 239.603L75.493 237.869L76.745 243.505L81 239.603ZM2.89923 3.25851L2.93521 3.75722C3.55553 3.71246 4.19752 3.68387 4.85706 3.67389L4.84949 3.17395L4.84193 2.67401C4.16337 2.68428 3.50243 2.71369 2.86325 2.75981L2.89923 3.25851ZM6.80094 3.19831L6.78095 3.69791C7.41031 3.72309 8.05086 3.7657 8.69948 3.82758L8.74697 3.32984L8.79445 2.8321C8.1271 2.76844 7.4682 2.72461 6.82092 2.69871L6.80094 3.19831ZM10.6831 3.56952L10.6076 4.0638C11.2345 4.15952 11.8658 4.27413 12.499 4.40917L12.6032 3.92017L12.7075 3.43116C12.0547 3.29193 11.4041 3.17383 10.7585 3.07525L10.6831 3.56952ZM14.4965 4.38462L14.3624 4.8663C14.9745 5.03671 15.5857 5.22753 16.1937 5.44012L16.3588 4.96814L16.5238 4.49616C15.8947 4.27619 15.2628 4.07894 14.6306 3.90294L14.4965 4.38462ZM18.177 5.67397L17.9801 6.13355C18.563 6.38332 19.1406 6.65495 19.7108 6.94967L19.9404 6.5055L20.17 6.06132C19.5777 5.75519 18.9783 5.47333 18.374 5.21438L18.177 5.67397ZM21.6386 7.4659L21.376 7.8914C21.9143 8.22364 22.4437 8.57893 22.9622 8.95844L23.2575 8.55498L23.5528 8.15153C23.0126 7.75608 22.4614 7.38612 21.9012 7.04041L21.6386 7.4659ZM24.7817 9.76835L24.4547 10.1465C24.9306 10.5582 25.3948 10.9933 25.8454 11.4531L26.2025 11.1031L26.5596 10.7531C26.0895 10.2735 25.6052 9.8195 25.1088 9.39016L24.7817 9.76835ZM27.5094 12.5515L27.1248 12.8709C27.5258 13.3538 27.9132 13.86 28.2854 14.3903L28.6946 14.1031L29.1039 13.8158C28.7161 13.2634 28.3123 12.7357 27.8941 12.2321L27.5094 12.5515ZM29.7515 15.7427L29.321 15.997C29.6389 16.535 29.9424 17.0949 30.2303 17.6774L30.6785 17.4558L31.1268 17.2343C30.8279 16.6297 30.5126 16.0479 30.1819 15.4883L29.7515 15.7427ZM31.4795 19.2325L31.0168 19.422C31.2539 20.0008 31.4766 20.5997 31.6841 21.2191L32.1582 21.0604L32.6323 20.9016C32.418 20.2617 32.1877 19.6423 31.9422 19.043L31.4795 19.2325ZM32.7206 22.9287L32.2377 23.0584C32.4005 23.6646 32.5495 24.2887 32.6841 24.9313L33.1735 24.8288L33.6629 24.7264C33.5246 24.0659 33.3712 23.4236 33.2035 22.799L32.7206 22.9287ZM33.5235 26.7491L33.0295 26.8263C33.1262 27.4449 33.2101 28.0793 33.2808 28.7297L33.7778 28.6757L34.2749 28.6218C34.2026 27.9561 34.1167 27.3063 34.0175 26.6719L33.5235 26.7491ZM33.9456 30.6135L33.4467 30.6461C33.4678 30.9688 33.4857 31.2952 33.5005 31.6253L34 31.6029L34.4995 31.5805C34.4844 31.2437 34.4661 30.9105 34.4446 30.5809L33.9456 30.6135ZM34 31.6029L33.5005 31.6253C33.5143 31.9331 33.5278 32.2501 33.5411 32.5763L34.0407 32.5559L34.5403 32.5356C34.5269 32.2082 34.5133 31.8898 34.4995 31.5805L34 31.6029ZM34.1163 34.585L33.6166 34.6021C33.6382 35.2346 33.6591 35.8937 33.6792 36.5786L34.179 36.5639L34.6788 36.5492C34.6586 35.8629 34.6377 35.2022 34.616 34.568L34.1163 34.585ZM34.2338 38.5595L33.734 38.5724C33.7508 39.2278 33.7671 39.903 33.7828 40.5973L34.2827 40.586L34.7825 40.5747C34.7668 39.8794 34.7505 39.2032 34.7337 38.5467L34.2338 38.5595ZM34.3248 42.5576L33.8249 42.5676C33.8382 43.2313 33.8512 43.9102 33.8636 44.6039L34.3636 44.5949L34.8635 44.5859C34.851 43.8916 34.838 43.2119 34.8247 42.5475L34.3248 42.5576ZM34.3971 46.5597L33.8972 46.5678C33.908 47.2326 33.9184 47.9095 33.9284 48.5982L34.4283 48.5909L34.9283 48.5836C34.9182 47.8945 34.9078 47.217 34.897 46.5516L34.3971 46.5597ZM34.4557 50.5633L33.9557 50.5699C33.9645 51.2325 33.9729 51.9048 33.981 52.5867L34.481 52.5808L34.981 52.5748C34.9728 51.8925 34.9644 51.2197 34.9557 50.5567L34.4557 50.5633ZM34.5036 54.5703L34.0036 54.5757C34.0107 55.2345 34.0175 55.9015 34.0241 56.5763L34.5241 56.5714L35.0241 56.5666C35.0175 55.8914 35.0106 55.2241 35.0035 54.5649L34.5036 54.5703ZM34.5428 58.5832L34.0428 58.5876C34.0486 59.2424 34.0541 59.9039 34.0594 60.572L34.5594 60.568L35.0594 60.564C35.0541 59.8956 35.0485 59.2338 35.0428 58.5788L34.5428 58.5832ZM34.5747 62.5921L34.0747 62.5957C34.0794 63.2502 34.0839 63.9106 34.0882 64.5766L34.5882 64.5734L35.0881 64.5702C35.0839 63.9039 35.0794 63.2433 35.0747 62.5885L34.5747 62.5921ZM34.6003 66.5763L34.1003 66.5792C34.1042 67.2447 34.1078 67.9155 34.1112 68.5913L34.6112 68.5887L35.1112 68.5862C35.1078 67.9102 35.1041 67.2392 35.1003 66.5735L34.6003 66.5763ZM34.6208 70.5737L34.1208 70.5759C34.1238 71.2421 34.1266 71.9128 34.1293 72.5878L34.6293 72.5859L35.1293 72.5839C35.1266 71.9087 35.1238 71.2378 35.1208 70.5714L34.6208 70.5737ZM34.6366 74.5836L34.1366 74.5853C34.1389 75.2459 34.141 75.9105 34.1429 76.5787L34.6429 76.5772L35.1429 76.5758C35.141 75.9074 35.1389 75.2427 35.1366 74.5819L34.6366 74.5836ZM34.6483 78.5932L34.1483 78.5944C34.1499 79.2543 34.1514 79.9176 34.1527 80.5842L34.6527 80.5832L35.1527 80.5822C35.1514 79.9155 35.1499 79.252 35.1483 78.5919L34.6483 78.5932ZM34.6563 82.5812L34.1563 82.582C34.1573 83.2511 34.1583 83.9231 34.159 84.5981L34.659 84.5975L35.159 84.5969C35.1583 83.9218 35.1573 83.2496 35.1563 82.5804L34.6563 82.5812ZM34.661 86.5848L34.161 86.5851C34.1615 87.2492 34.1619 87.9158 34.1621 88.585L34.6621 88.5847L35.1621 88.5845C35.1619 87.9153 35.1615 87.2486 35.161 86.5844L34.661 86.5848ZM34.6626 90.5993L34.1626 90.5993C34.1626 91.2597 34.1625 91.9224 34.1623 92.5871L34.6623 92.5872L35.1623 92.5874C35.1625 91.9226 35.1626 91.2598 35.1626 90.5992L34.6626 90.5993ZM34.6614 94.5877L34.1614 94.5874C34.161 95.2561 34.1605 95.9267 34.1598 96.5991L34.6598 96.5996L35.1598 96.6C35.1605 95.9275 35.161 95.2568 35.1614 94.588L34.6614 94.5877ZM34.6576 98.5901L34.1576 98.5895C34.1568 99.2546 34.1559 99.9214 34.1549 100.59L34.6549 100.59L35.1549 100.591C35.1559 99.9228 35.1568 99.256 35.1576 98.5907L34.6576 98.5901ZM34.6515 102.6L34.1515 102.599C34.1503 103.262 34.149 103.926 34.1476 104.592L34.6476 104.593L35.1476 104.594C35.149 103.928 35.1503 103.264 35.1515 102.6L34.6515 102.6ZM34.6431 106.593L34.1431 106.592C34.1416 107.259 34.1399 107.928 34.1381 108.598L34.6381 108.599L35.1381 108.601C35.1399 107.931 35.1416 107.262 35.1431 106.594L34.6431 106.593ZM34.6327 110.596L34.1327 110.595C34.1308 111.26 34.1288 111.927 34.1267 112.594L34.6267 112.596L35.1267 112.597C35.1288 111.93 35.1307 111.263 35.1327 110.597L34.6327 110.596ZM34.6202 114.599L34.1202 114.598C34.118 115.264 34.1157 115.93 34.1133 116.597L34.6133 116.599L35.1133 116.601C35.1157 115.934 35.118 115.267 35.1202 114.601L34.6202 114.599ZM34.6059 118.599L34.1059 118.597C34.1034 119.264 34.1008 119.931 34.0981 120.598L34.5981 120.6L35.0981 120.602C35.1008 119.935 35.1034 119.267 35.1059 118.6L34.6059 118.599ZM34.5899 122.601L34.0899 122.599C34.0871 123.266 34.0842 123.933 34.0812 124.599L34.5812 124.602L35.0812 124.604C35.0842 123.937 35.087 123.27 35.0899 122.603L34.5899 122.601ZM34.5721 126.602L34.0721 126.599C34.069 127.267 34.0659 127.934 34.0626 128.6L34.5626 128.603L35.0626 128.605C35.0659 127.938 35.069 127.271 35.0721 126.604L34.5721 126.602ZM34.5528 130.605L34.0528 130.602C34.0494 131.269 34.046 131.935 34.0425 132.601L34.5425 132.604L35.0425 132.606C35.046 131.94 35.0494 131.274 35.0528 130.607L34.5528 130.605ZM34.5319 134.604L34.0319 134.601C34.0283 135.27 34.0246 135.938 34.0209 136.605L34.5208 136.607L35.0208 136.61C35.0246 135.943 35.0282 135.275 35.0319 134.607L34.5319 134.604ZM34.5095 138.606L34.0095 138.603C34.0056 139.27 34.0017 139.937 33.9978 140.602L34.4978 140.605L34.9977 140.608C35.0017 139.942 35.0056 139.276 35.0095 138.609L34.5095 138.606ZM34.4856 142.61L33.9856 142.607C33.9815 143.275 33.9774 143.941 33.9732 144.606L34.4732 144.609L34.9732 144.612C34.9774 143.947 34.9815 143.281 34.9856 142.613L34.4856 142.61ZM34.4604 146.605L33.9605 146.602C33.9561 147.273 33.9517 147.942 33.9473 148.61L34.4473 148.613L34.9473 148.616C34.9517 147.949 34.9561 147.279 34.9604 146.608L34.4604 146.605ZM34.4338 150.611L33.9338 150.608C33.9293 151.274 33.9247 151.939 33.9201 152.602L34.4201 152.605L34.9201 152.609C34.9247 151.946 34.9293 151.281 34.9338 150.615L34.4338 150.611ZM34.4059 154.616L33.9059 154.612C33.9011 155.28 33.8963 155.946 33.8915 156.61L34.3914 156.614L34.8914 156.617C34.8963 155.954 34.9011 155.288 34.9059 154.619L34.4059 154.616ZM34.3767 158.607L33.8767 158.603C33.8717 159.276 33.8666 159.947 33.8615 160.615L34.3615 160.619L34.8615 160.623C34.8666 159.954 34.8717 159.284 34.8767 158.61L34.3767 158.607ZM34.3461 162.615L33.8461 162.612C33.8409 163.279 33.8357 163.944 33.8304 164.605L34.3304 164.609L34.8304 164.613C34.8357 163.952 34.8409 163.287 34.8461 162.619L34.3461 162.615ZM34.3143 166.622L33.8143 166.618C33.8089 167.286 33.8034 167.95 33.7979 168.611L34.2979 168.616L34.7979 168.62C34.8034 167.959 34.8088 167.294 34.8142 166.626L34.3143 166.622ZM34.2812 170.614L33.7812 170.61C33.7755 171.284 33.7698 171.955 33.7641 172.621L34.2641 172.625L34.7641 172.63C34.7698 171.963 34.7755 171.293 34.7812 170.619L34.2812 170.614ZM34.2468 174.613L33.7469 174.608C33.7409 175.282 33.735 175.952 33.7291 176.617L34.2291 176.622L34.729 176.626C34.735 175.961 34.7409 175.291 34.7468 174.617L34.2468 174.613ZM34.211 178.627L33.711 178.622C33.705 179.286 33.6989 179.945 33.6929 180.598L34.1929 180.603L34.6928 180.608C34.6989 179.954 34.7049 179.295 34.711 178.631L34.211 178.627ZM34.1739 182.629L33.6739 182.625C33.6676 183.295 33.6613 183.959 33.6549 184.618L34.1549 184.622L34.6549 184.627C34.6612 183.969 34.6676 183.304 34.6739 182.634L34.1739 182.629ZM34.1355 186.621L33.6355 186.616C33.6289 187.293 33.6223 187.964 33.6157 188.628L34.1156 188.633L34.6156 188.638C34.6222 187.974 34.6289 187.303 34.6355 186.626L34.1355 186.621ZM34.0958 190.603L33.5958 190.598C33.5888 191.284 33.5819 191.961 33.5749 192.631L34.0749 192.636L34.5749 192.641C34.5818 191.972 34.5888 191.294 34.5957 190.609L34.0958 190.603ZM34.0541 194.619L33.5541 194.614C33.5469 195.295 33.5398 195.967 33.5326 196.629L34.0326 196.634L34.5326 196.639C34.5397 195.977 34.5469 195.306 34.5541 194.625L34.0541 194.619ZM34.0108 198.629L33.5108 198.623C33.5072 198.951 33.5036 199.275 33.5 199.597L34 199.603L34.5 199.609C34.5036 199.286 34.5072 198.962 34.5108 198.634L34.0108 198.629ZM34 199.603L33.5002 199.618C33.51 199.948 33.5234 200.283 33.5406 200.623L34.04 200.598L34.5394 200.572C34.5225 200.239 34.5094 199.911 34.4998 199.588L34 199.603ZM34.1815 202.608L33.6835 202.652C33.7427 203.312 33.8155 203.987 33.9026 204.674L34.3986 204.611L34.8946 204.548C34.8091 203.873 34.7376 203.211 34.6795 202.563L34.1815 202.608ZM34.6865 206.601L34.193 206.681C34.2998 207.338 34.4195 208.003 34.5528 208.676L35.0433 208.578L35.5337 208.481C35.4027 207.82 35.285 207.166 35.18 206.52L34.6865 206.601ZM35.4684 210.543L34.9816 210.658C35.1345 211.309 35.3002 211.965 35.4794 212.624L35.9619 212.493L36.4444 212.362C36.2683 211.714 36.1054 211.07 35.9552 210.429L35.4684 210.543ZM36.5246 214.424L36.0472 214.572C36.247 215.214 36.4599 215.857 36.6864 216.499L37.1579 216.332L37.6294 216.166C37.4072 215.536 37.1982 214.905 37.002 214.275L36.5246 214.424ZM37.8637 218.216L37.399 218.4C37.648 219.027 37.9106 219.652 38.1873 220.273L38.644 220.069L39.1007 219.866C38.8298 219.257 38.5725 218.645 38.3283 218.031L37.8637 218.216ZM39.5014 221.888L39.0538 222.111C39.3553 222.716 39.6709 223.316 40.0012 223.91L40.4382 223.667L40.8751 223.424C40.5524 222.844 40.2438 222.257 39.9489 221.665L39.5014 221.888ZM41.4571 225.4L41.0324 225.664C41.3898 226.239 41.7622 226.807 42.1499 227.366L42.5607 227.081L42.9714 226.796C42.5937 226.251 42.2306 225.698 41.8819 225.136L41.4571 225.4ZM43.7507 228.701L43.3558 229.008C43.772 229.544 44.2038 230.069 44.6517 230.582L45.0284 230.253L45.4052 229.925C44.9701 229.426 44.5503 228.915 44.1455 228.394L43.7507 228.701ZM46.3943 231.728L46.0378 232.079C46.5134 232.562 47.0051 233.033 47.5135 233.489L47.8474 233.117L48.1813 232.745C47.6888 232.303 47.2121 231.847 46.7507 231.378L46.3943 231.728ZM49.3857 234.41L49.0765 234.803C49.6088 235.222 50.1575 235.626 50.7229 236.013L51.0054 235.6L51.2878 235.188C50.7409 234.813 50.2101 234.423 49.6949 234.017L49.3857 234.41ZM52.7014 236.679L52.4475 237.11C53.0298 237.453 53.6283 237.78 54.2433 238.088L54.4675 237.641L54.6916 237.194C54.097 236.896 53.5184 236.58 52.9554 236.249L52.7014 236.679ZM56.2963 238.482L56.1029 238.943C56.7239 239.204 57.3602 239.446 58.0123 239.67L58.1747 239.197L58.3372 238.725C57.7061 238.508 57.0904 238.273 56.4898 238.021L56.2963 238.482ZM60.0915 239.788L59.9598 240.27C60.6059 240.446 61.2663 240.605 61.9411 240.745L62.0428 240.256L62.1446 239.766C61.4898 239.63 60.8494 239.476 60.2233 239.305L60.0915 239.788ZM64.0227 240.606L63.95 241.101C64.6142 241.199 65.2915 241.279 65.982 241.341L66.0269 240.843L66.0717 240.345C65.3996 240.285 64.7408 240.206 64.0953 240.112L64.0227 240.606ZM68.0287 240.97L68.0099 241.47C68.6739 241.495 69.3495 241.504 70.0367 241.496L70.031 240.996L70.0254 240.496C69.3541 240.504 68.6949 240.495 68.0474 240.471L68.0287 240.97ZM72.0459 240.926L72.0745 241.425C72.7404 241.387 73.4167 241.334 74.1036 241.265L74.0537 240.768L74.0038 240.27C73.3308 240.338 72.6687 240.39 72.0173 240.427L72.0459 240.926ZM76.0376 240.529L76.107 241.024C76.7697 240.931 77.4418 240.824 78.1235 240.702L78.0358 240.21L77.9481 239.718C77.2783 239.837 76.6184 239.942 75.9681 240.033L76.0376 240.529Z" fill="#2BEE79"/>
</svg>
